<svg width="1120" height="376" viewBox="0 0 1120 376" fill="none" xmlns="http://www.w3.org/2000/svg">
<rect width="256" height="376" fill="#C4C4C4"/>
<path fill-rule="evenodd" clip-rule="evenodd" d="M155 161H101C98 161 95 164 95 167V209C95 212.3 97.7 215 101 215H155C158 215 161 212 161 209V167C161 164 158 161 155 161ZM155 208.76C154.958 208.823 154.887 208.885 154.828 208.938C154.802 208.961 154.778 208.982 154.76 209H101V167.24L101.24 167H154.73C154.793 167.042 154.855 167.113 154.908 167.172C154.931 167.198 154.952 167.222 154.97 167.24V208.76H155ZM117.5 189.5L125 198.53L135.5 185L149 203H107L117.5 189.5Z" fill="black" fill-opacity="0.54"/>
<rect x="288" width="256" height="376" fill="#C4C4C4"/>
<path fill-rule="evenodd" clip-rule="evenodd" d="M443 161H389C386 161 383 164 383 167V209C383 212.3 385.7 215 389 215H443C446 215 449 212 449 209V167C449 164 446 161 443 161ZM443 208.76C442.958 208.823 442.887 208.885 442.828 208.938C442.802 208.961 442.778 208.982 442.76 209H389V167.24L389.24 167H442.73C442.793 167.042 442.855 167.113 442.908 167.172C442.931 167.198 442.952 167.222 442.97 167.24V208.76H443ZM405.5 189.5L413 198.53L423.5 185L437 203H395L405.5 189.5Z" fill="black" fill-opacity="0.54"/>
<rect x="576" width="256" height="376" fill="#C4C4C4"/>
<path fill-rule="evenodd" clip-rule="evenodd" d="M731 161H677C674 161 671 164 671 167V209C671 212.3 673.7 215 677 215H731C734 215 737 212 737 209V167C737 164 734 161 731 161ZM731 208.76C730.958 208.823 730.887 208.885 730.828 208.938C730.802 208.961 730.778 208.982 730.76 209H677V167.24L677.24 167H730.73C730.793 167.042 730.855 167.113 730.908 167.172C730.931 167.198 730.952 167.222 730.97 167.24V208.76H731ZM693.5 189.5L701 198.53L711.5 185L725 203H683L693.5 189.5Z" fill="black" fill-opacity="0.54"/>
<rect x="864" width="256" height="376" fill="#C4C4C4"/>
<path fill-rule="evenodd" clip-rule="evenodd" d="M1019 161H965C962 161 959 164 959 167V209C959 212.3 961.7 215 965 215H1019C1022 215 1025 212 1025 209V167C1025 164 1022 161 1019 161ZM1019 208.76C1018.96 208.823 1018.89 208.885 1018.83 208.938C1018.8 208.961 1018.78 208.982 1018.76 209H965V167.24L965.24 167H1018.73C1018.79 167.042 1018.86 167.113 1018.91 167.172C1018.93 167.198 1018.95 167.222 1018.97 167.24V208.76H1019ZM981.5 189.5L989 198.53L999.5 185L1013 203H971L981.5 189.5Z" fill="black" fill-opacity="0.54"/>
</svg>
